<svg width="27" height="24" viewBox="0 0 27 24" fill="none" xmlns="http://www.w3.org/2000/svg">
<path fill-rule="evenodd" clip-rule="evenodd" d="M22.2216 16.0028V18.4163C22.2236 18.8693 22.0133 19.3021 21.6424 19.6084C21.2715 19.9147 20.7743 20.066 20.2729 20.0252C17.5224 19.7562 14.8803 18.9103 12.5589 17.5555C10.3992 16.3203 8.56813 14.6724 7.19575 12.7286C5.68511 10.6299 4.745 8.24046 4.4516 5.75383C4.40643 5.30403 4.57341 4.85785 4.91173 4.52429C5.25005 4.19073 5.72856 4.0005 6.23038 4.00008H8.91196C9.80928 3.99213 10.5741 4.5841 10.6997 5.38378C10.8129 6.15613 11.0228 6.91447 11.3254 7.64435C11.571 8.23232 11.4139 8.89515 10.9232 9.34179L9.78795 10.3635C11.0604 12.3775 12.9133 14.0451 15.1511 15.1903L16.2863 14.1686C16.7826 13.727 17.5191 13.5856 18.1724 13.8066C18.9833 14.079 19.8259 14.2679 20.6841 14.3698C21.5829 14.4839 22.2441 15.1861 22.2216 16.0028Z" stroke="#9DA4BD" stroke-linecap="round" stroke-linejoin="round"/>
</svg>
